# xmcd
#
# Track frame offsets: 
#        180
#        45682
#        61445
#        96095
#        120732
#        141920
#        158390
#        182312
#        199110
#        228495
#        254447
#
# Disc length: 3507 seconds
#
# Revision: 13
# Processed by: cddbd v1.5.2PL0 Copyright (c) Steve Scherf et al.
# Submitted via: ExactAudioCopyFreeDBPlugin 1.0
#
DISCID=900db10b
DTITLE=Enslaved - Mardraum - Beyond The Within
DYEAR=2000
DGENRE=Black Metal
TTITLE0=Større Enn Tid - Tyngre Enn Natt
TTITLE1=Daudningekvida
TTITLE2=Entrance - Escape
TTITLE3=Ormgard
TTITLE4=Æges Draum
TTITLE5=Mardraum
TTITLE6=Det Endelege Riket
TTITLE7=Ormgard II - Kvalt I Kysk Høgsong
TTITLE8=Krigaren Eg Ikkje Kjende
TTITLE9=Stjerneheimen
TTITLE10=Frøyas Smykke
EXTD=
EXTT0=
EXTT1=
EXTT2=
EXTT3=
EXTT4=
EXTT5=
EXTT6=
EXTT7=
EXTT8=
EXTT9=
EXTT10=
PLAYORDER=
